<svg width="182" height="182" viewBox="0 0 182 182" fill="none" xmlns="http://www.w3.org/2000/svg">
<path d="M90.9595 0H90.9507C40.72 0 0 40.72 0 90.9507V90.9593C0 141.19 40.72 181.91 90.9507 181.91H90.9595C141.19 181.91 181.91 141.19 181.91 90.9593V90.9507C181.91 40.72 141.19 0 90.9595 0Z" fill="#00DDB3"/>
<path d="M128.537 51C103.585 51 94.3356 68.8103 86.9277 83.1214L82.0778 92.2756C74.1924 107.453 68.3194 116.668 53.1693 116.668C51.268 116.668 49.4445 117.424 48.1 118.768C46.7555 120.113 46 121.936 46 123.838C46 124.779 46.1855 125.711 46.5459 126.58C46.9063 127.45 47.4345 128.239 48.1003 128.905C48.7661 129.57 49.5564 130.097 50.4262 130.457C51.2959 130.816 52.2282 131.001 53.1693 131C78.1216 131 87.3644 113.19 94.7791 98.8786L99.636 89.7244C107.515 74.5471 113.394 65.3315 128.544 65.3315C130.445 65.3297 132.268 64.5738 133.612 63.2298C134.956 61.8857 135.712 60.0632 135.713 58.1623C135.712 56.2621 134.956 54.4404 133.611 53.0974C132.267 51.7544 130.445 51 128.544 51H128.537Z" fill="white"/>
</svg>
